<svg id="Layer_1" data-name="Layer 1" xmlns="http://www.w3.org/2000/svg" viewBox="0 0 250 250"><title>memeify-logo-dark</title><text transform="translate(35.47 147.69)" style="font-size:60.457618713378906px;fill:#fff;font-family:BillionDreams, Billion Dreams">Memeify</text><path d="M143.58,96.75a3.79,3.79,0,0,1-3.8,3.8h-4.5a2.8,2.8,0,0,1-2.79,2.55H120.08a2.8,2.8,0,0,1-2-4.79,2.74,2.74,0,0,1,1.17-.7,3.55,3.55,0,0,1-.1-.86,3.75,3.75,0,0,1,1.11-2.69A3.79,3.79,0,0,1,123,92.94h16.81A3.8,3.8,0,0,1,143.58,96.75Z"/><path d="M107.73,90.75a2.59,2.59,0,0,1-.76,1.84,2.62,2.62,0,0,1-1.84.77h-3.08a1.95,1.95,0,0,1-1.92,1.75h-8.5a1.92,1.92,0,0,1-1.36-3.29,1.87,1.87,0,0,1,.8-.48,2.88,2.88,0,0,1-.07-.59,2.63,2.63,0,0,1,2.61-2.61h11.52A2.6,2.6,0,0,1,107.73,90.75Z"/><path d="M162.92,95.37l-.33,2.79,5.56.79-.37,3.1c-1.91-.25-3.8-.54-5.7-.89a14.79,14.79,0,0,1,.2-2.89l-15.66-2.22a14.93,14.93,0,0,1-.49,2.84,25.87,25.87,0,0,1-2.79-.31,13.4,13.4,0,0,1-.47,2.69,19.12,19.12,0,0,1-2.5-.28l-.33,2.79-2.93-.41-.33,2.79-19.62-2.79.34-2.79-2.78-.39.33-2.79-2.78-.4c.14-1,.23-2,.28-3a20.43,20.43,0,0,1-5-.71,28.89,28.89,0,0,0-.42,2.94l-2.79-.4L104,98.67,84.71,95.93,85,93.14,82,92.7a29.14,29.14,0,0,0,.28-3A8.88,8.88,0,0,1,80,89.58l.71-5.89ZM140.3,97.83l-2.49-.35.32-2.64,2.49.35ZM135,97.08l-2.49-.35.32-2.64,2.49.36Zm-30.44-4.32-2.49-.35.32-2.64,2.48.35ZM99,92l-2.49-.35L96.85,89l2.49.36Zm38.3,8.28-2.48-.36.31-2.63,2.49.35Zm-5.41-.77-2.34-.33.31-2.64,2.34.33Zm-30.3-4.3-2.49-.36.32-2.63,2.49.35Zm-5.71-.81L93.57,94l.32-2.63,2.34.33Zm38.46,8.29-2.49-.35a23,23,0,0,1,.39-2.62,5,5,0,0,0,2.41.34Zm-5.42-.77-2.49-.35a23,23,0,0,1,.39-2.62,5,5,0,0,0,2.41.34Z" style="fill:#fff;fill-rule:evenodd;opacity:0.9639999866485596;isolation:isolate"/></svg>