<svg id="Layer_1" data-name="Layer 1" xmlns="http://www.w3.org/2000/svg" viewBox="0 0 250 250"><title>memeify-logo-light</title><text transform="translate(35.47 147.69)" style="font-size:60.457618713378906px;font-family:BillionDreams, Billion Dreams">Memeify</text><path d="M144,91A3.07,3.07,0,0,1,141,94.06h-3.62a2.29,2.29,0,0,1-.65,1.39,2.24,2.24,0,0,1-1.6.66h-10a2.26,2.26,0,0,1-.66-4.42,3.17,3.17,0,0,1-.08-.69,3.06,3.06,0,0,1,3.06-3.06H141A3.06,3.06,0,0,1,144,91Z" style="fill:#fffffd"/><path d="M110.73,84.75a2.59,2.59,0,0,1-.76,1.84,2.62,2.62,0,0,1-1.84.77h-3.08a1.95,1.95,0,0,1-1.92,1.75h-8.5a1.92,1.92,0,0,1-1.36-3.29,1.87,1.87,0,0,1,.8-.48,2.88,2.88,0,0,1-.07-.59,2.63,2.63,0,0,1,2.61-2.61h11.52A2.6,2.6,0,0,1,110.73,84.75Z" style="fill:#fffffd"/><rect x="122.35" y="94.98" width="17.22" height="9.47" rx="4.73" transform="translate(-27.83 56.38) rotate(-22.02)" style="fill:#fff"/><rect x="89.73" y="88.74" width="14.46" height="7.95" rx="3.97" transform="translate(-11.15 13.28) rotate(-7.41)" style="fill:#fff"/><path d="M160.92,96.37l-.33,2.79,5.56.79-.37,3.1c-1.91-.25-3.8-.54-5.7-.89a14.79,14.79,0,0,1,.2-2.89l-15.66-2.22a14.93,14.93,0,0,1-.49,2.84,25.87,25.87,0,0,1-2.79-.31,13.4,13.4,0,0,1-.47,2.69,19.12,19.12,0,0,1-2.5-.28l-.33,2.79-2.93-.41-.33,2.79-19.62-2.79.34-2.79-2.78-.39.33-2.79-2.78-.4c.14-1,.23-2,.28-3a20.43,20.43,0,0,1-5-.71,28.89,28.89,0,0,0-.42,2.94l-2.79-.4L102,99.67,82.71,96.93,83,94.14,80,93.7a29.14,29.14,0,0,0,.28-3A8.88,8.88,0,0,1,78,90.58l.71-5.89ZM138.3,98.83l-2.49-.35.32-2.64,2.49.35ZM133,98.08l-2.49-.35.32-2.64,2.49.36Zm-30.44-4.32-2.49-.35.32-2.64,2.48.35ZM97,93l-2.49-.35L94.85,90l2.49.36Zm38.3,8.28-2.48-.36.31-2.63,2.49.35Zm-5.41-.77-2.34-.33.31-2.64,2.34.33Zm-30.3-4.3-2.49-.36.32-2.63,2.49.35Zm-5.71-.81L91.57,95l.32-2.63,2.34.33Zm38.46,8.29-2.49-.35a23,23,0,0,1,.39-2.62,5,5,0,0,0,2.41.34Zm-5.42-.77-2.49-.35a23,23,0,0,1,.39-2.62,5,5,0,0,0,2.41.34Z" style="fill-rule:evenodd;opacity:0.9639999866485596;isolation:isolate"/></svg>